<?xml version="1.0" encoding="UTF-8"?>
<svg width="45px" height="38px" viewBox="0 0 45 38" version="1.1" xmlns="http://www.w3.org/2000/svg" xmlns:xlink="http://www.w3.org/1999/xlink">
    <title>icon-audio</title>
    <g id="Style-Guide" stroke="none" stroke-width="1" fill="none" fill-rule="evenodd">
        <path d="M34.9736188,0.519195812 C35.6502768,-0.173268042 36.7471854,-0.173268042 37.4238434,0.519195812 C42.1926238,5.40344854 44.8190665,11.8966912 44.8190665,18.8035873 C44.8190665,25.6658736 42.2218285,32.1297145 37.5055175,37.0038287 C37.166446,37.354116 36.7209507,37.5295132 36.2749603,37.5295132 C35.8339199,37.5295132 35.3928795,37.3581714 35.055293,37.015488 C34.375665,36.3255588 34.3707151,35.202206 35.0439081,34.5061937 C39.1132608,30.3012247 41.3541025,24.7245081 41.3541025,18.8035873 C41.3541025,12.8446469 39.0880161,7.24258387 34.9736188,3.02849016 C34.2969609,2.33551937 34.2969609,1.21216659 34.9736188,0.519195812 Z M21.5445128,0.995286443 C22.585198,0.163893867 24.1131842,0.91505987 24.1131842,2.25693873 L24.1131842,2.25693873 L24.1131842,35.272473 C24.1131842,36.6143519 22.585198,37.3655179 21.5445128,36.5341253 L21.5445128,36.5341253 L9.23083122,26.6974277 L9.23083122,10.8319841 Z M27.7989196,6.41100623 C28.4468412,5.68259583 29.5549172,5.62320627 30.2739398,6.27953704 C33.7603986,9.46119307 35.760243,14.0118546 35.760243,18.7645421 C35.760243,23.5172296 33.7603986,28.0683988 30.2734391,31.2500548 C29.9389634,31.5556318 29.5193666,31.7058824 29.1017727,31.7058824 C28.6220904,31.7058824 28.1449117,31.5079172 27.7984189,31.118078 C27.1509981,30.3886524 27.2090807,29.2653268 27.9286041,28.608996 C30.6785153,26.0999141 32.2552579,22.5121756 32.2552579,18.7645421 C32.2552579,15.0174163 30.6785153,11.4296778 27.9286041,8.9200882 C27.2095814,8.26375743 27.1514988,7.14043184 27.7989196,6.41100623 Z M6.64259593,11 L6.64259593,26.5294118 L2.68560124,26.5294118 C1.65485765,26.5294118 0.819066519,25.6572723 0.819066519,24.5817019 L0.819066519,24.5817019 L0.819066519,12.9477098 C0.819066519,11.8721395 1.65485765,11 2.68560124,11 L2.68560124,11 L6.64259593,11 Z" id="icon-audio" fill="#231F20"></path>
    </g>
</svg>