<?xml version="1.0" encoding="UTF-8"?>
<svg width="40px" height="48px" viewBox="0 0 40 48" version="1.1" xmlns="http://www.w3.org/2000/svg" xmlns:xlink="http://www.w3.org/1999/xlink">
    <title>icon-bar</title>
    <g id="Style-Guide" stroke="none" stroke-width="1" fill="none" fill-rule="evenodd">
        <path d="M35.926,35.6381 C35.926,36.1981 35.473,36.6511 34.913,36.6511 L29.867,36.6511 L29.867,23.4261 L34.913,23.4261 C35.473,23.4261 35.926,23.8791 35.926,24.4391 L35.926,35.6381 Z M25.672,15.1881 L13.746,15.1881 L13.746,21.2441 C13.746,22.7021 12.565,23.8841 11.108,23.8841 C9.65,23.8841 8.467,22.7021 8.467,21.2441 L8.467,15.1881 L6.535,15.1881 C4.999,15.1881 3.754,13.9431 3.754,12.4071 C3.754,10.8701 4.999,9.6261 6.535,9.6261 L9.203,9.6261 C9.189,9.4941 9.164,9.3671 9.164,9.2311 C9.164,7.2611 10.762,5.6621 12.733,5.6621 C13.757,5.6621 14.674,6.1001 15.324,6.7911 C15.934,4.9911 17.617,3.6861 19.623,3.6861 C22.14,3.6861 24.18,5.7261 24.18,8.2431 C24.18,8.7281 24.084,9.1871 23.944,9.6261 L25.672,9.6261 C27.208,9.6261 28.453,10.8701 28.453,12.4071 C28.453,13.9431 27.208,15.1881 25.672,15.1881 L25.672,15.1881 Z M20.255,29.2331 C18.957,29.2331 17.906,28.1811 17.906,26.8841 C17.906,25.5871 18.957,24.5351 20.255,24.5351 C21.552,24.5351 22.603,25.5871 22.603,26.8841 C22.603,28.1811 21.552,29.2331 20.255,29.2331 L20.255,29.2331 Z M14.501,36.6911 C13.507,36.6911 12.701,35.8851 12.701,34.8911 C12.701,33.8971 13.507,33.0901 14.501,33.0901 C15.495,33.0901 16.301,33.8971 16.301,34.8911 C16.301,35.8851 15.495,36.6911 14.501,36.6911 L14.501,36.6911 Z M35.623,19.6241 L29.867,19.6241 L29.867,16.8211 C31.514,15.7331 32.601,13.8681 32.601,11.7471 C32.601,8.4591 29.99,5.7881 26.731,5.6771 C26.016,2.4301 23.127,-0.0009 19.665,-0.0009 C17.694,-0.0009 15.908,0.7901 14.603,2.0691 C12.881,1.6091 10.977,1.8731 9.393,2.9631 C8.376,3.6631 7.635,4.6101 7.181,5.6661 L6.081,5.6661 C2.723,5.6661 4.54747351e-13,8.3881 4.54747351e-13,11.7471 C4.54747351e-13,13.7771 0.999,15.5701 2.529,16.6741 L2.529,45.2361 C2.529,46.7621 3.766,47.9991 5.292,47.9991 L27.104,47.9991 C28.63,47.9991 29.867,46.7621 29.867,45.2361 L29.867,40.4521 L35.623,40.4521 C37.86,40.4521 39.672,38.6401 39.672,36.4051 L39.672,23.6721 C39.672,21.4361 37.86,19.6241 35.623,19.6241 L35.623,19.6241 Z" id="icon-bar" fill="#000000"></path>
    </g>
</svg>