<?xml version="1.0" encoding="UTF-8"?>
<svg width="16px" height="20px" viewBox="0 0 16 20" version="1.1" xmlns="http://www.w3.org/2000/svg" xmlns:xlink="http://www.w3.org/1999/xlink">
    <title>icon-date</title>
    <g id="Style-Guide" stroke="none" stroke-width="1" fill="none" fill-rule="evenodd">
        <path d="M8.13356652,11.8750035 C6.53856652,11.8750035 5.17023319,13.1716702 4.50356652,15.0000035 L11.7635665,15.0000035 C11.0968999,13.1716702 9.72856652,11.8750035 8.13356652,11.8750035 M12.1968999,2.50000349 L4.07023319,2.50000349 C4.07023319,3.38833683 4.22689985,4.24000349 4.50356652,5.00000349 L11.7652332,5.00000349 C12.0402332,4.24167016 12.1968999,3.39000349 12.1968999,2.50000349 M15.6335665,0.938336825 L15.6335665,1.56333683 C15.6335665,2.08000349 15.2135665,2.50000349 14.6968999,2.50000349 C14.6968999,6.05333683 12.7035665,9.05333683 9.97523319,10.0000035 C12.7035665,10.9466702 14.6968999,13.9466702 14.6968999,17.5000035 C15.2135665,17.5000035 15.6335665,17.9200035 15.6335665,18.4383368 L15.6335665,19.0616702 C15.6335665,19.5800035 15.2135665,20.0000035 14.6968999,20.0000035 L1.57023319,20.0000035 C1.05356652,20.0000035 0.633566519,19.5800035 0.633566519,19.0616702 L0.633566519,18.4383368 C0.633566519,17.9200035 1.05356652,17.5000035 1.57023319,17.5000035 C1.57023319,13.9466702 3.56356652,10.9466702 6.29189985,10.0000035 C3.56356652,9.05333683 1.57023319,6.05333683 1.57023319,2.50000349 C1.05356652,2.50000349 0.633566519,2.08000349 0.633566519,1.56333683 L0.633566519,0.938336825 C0.633566519,0.420003492 1.05356652,3.49182096e-06 1.57023319,3.49182096e-06 L14.6968999,3.49182096e-06 C15.2135665,3.49182096e-06 15.6335665,0.420003492 15.6335665,0.938336825" id="icon-date" fill="#000000"></path>
    </g>
</svg>