<?xml version="1.0" encoding="UTF-8"?>
<svg width="21px" height="20px" viewBox="0 0 21 20" version="1.1" xmlns="http://www.w3.org/2000/svg" xmlns:xlink="http://www.w3.org/1999/xlink">
    <title>icon-link</title>
    <g id="Style-Guide" stroke="none" stroke-width="1" fill="none" fill-rule="evenodd">
        <path d="M18.7107113,10.1333222 L17.2624986,11.5815349 C16.8758642,11.9665028 16.2159192,11.711524 16.1959209,11.168236 C16.1709229,10.4749604 16.0459334,9.78001833 15.8176191,9.10840763 C15.7392923,8.88175985 15.7942877,8.63011416 15.96594,8.46012832 L16.4758975,7.94850429 C17.5691398,6.85359553 17.6058034,5.07207733 16.5225603,3.9671694 C15.425985,2.85059578 13.626135,2.84392967 12.5245601,3.94550454 L9.89977888,6.57028581 C8.79820401,7.67186068 8.80320359,9.45171236 9.89977888,10.5482876 C10.0447668,10.6932756 10.1897547,10.8032664 10.3030786,10.8832597 C10.4613987,10.991584 10.56639,11.171569 10.5747226,11.3748854 C10.5897214,11.7881843 10.4447335,12.2131489 10.118094,12.5381218 L9.29649582,13.3613866 C9.0798472,13.5763686 8.74154206,13.6046996 8.49156289,13.4297142 C8.20325359,13.2280643 7.93827567,13.0064161 7.68996303,12.7581035 C5.35515759,10.4216315 5.38848815,6.67694359 7.67663081,4.37546871 C7.67996386,4.37213566 7.68496344,4.36546954 7.68996303,4.36213649 L10.3147443,1.73735522 C12.6312179,-0.579118407 16.3959042,-0.579118407 18.7107113,1.73735522 C21.0271849,4.05216232 21.0271849,7.81851512 18.7107113,10.1333222 M13.2195022,15.6245313 C13.2161692,15.6278643 13.2111696,15.6345305 13.20617,15.6378635 L10.5813887,18.2626448 C8.26491512,20.5791184 4.50022884,20.5791184 2.18542174,18.2626448 C-0.131051888,15.9478377 -0.131051888,12.1814849 2.18542174,9.86667778 L3.63363439,8.41846513 C4.02026884,8.03183068 4.68021384,8.28847596 4.70021217,8.83176402 C4.72521009,9.52503958 4.85019967,10.2199817 5.07851398,10.8899258 C5.15684079,11.1182401 5.10184537,11.3698858 4.93019301,11.5398717 L4.42023551,12.0498292 C3.32699328,13.1464045 3.29032966,14.9279227 4.37357273,16.0328306 C5.47014801,17.1494042 7.2683315,17.1560703 8.37157289,16.0544955 L10.9963542,13.4297142 C12.097929,12.3264728 12.0929294,10.5482876 10.9963542,9.45171236 C10.8513662,9.30672444 10.7063783,9.19673361 10.5930544,9.11674027 C10.4347343,9.00841597 10.329743,8.82843096 10.3214104,8.62511457 C10.3064117,8.21181568 10.4513996,7.7868511 10.778039,7.46021165 L11.5996372,6.63694692 C11.8162858,6.42196484 12.154591,6.39530039 12.4045701,6.57028581 C12.6928795,6.77026914 12.9578574,6.99358387 13.20617,7.24189651 C15.5409754,9.57836847 15.5076449,13.3230564 13.2195022,15.6245313" id="icon-link" fill="#000000"></path>
    </g>
</svg>