<?xml version="1.0" encoding="UTF-8"?>
<svg width="16px" height="20px" viewBox="0 0 16 20" version="1.1" xmlns="http://www.w3.org/2000/svg" xmlns:xlink="http://www.w3.org/1999/xlink">
    <title>icon-location</title>
    <g id="Style-Guide" stroke="none" stroke-width="1" fill="none" fill-rule="evenodd">
        <path d="M11.5730014,7.49984375 C11.5730014,5.77487969 10.1730306,4.37490886 8.44806652,4.37490886 C6.72310246,4.37490886 5.32313162,5.77487969 5.32313162,7.49984375 C5.32313162,9.22480782 6.72310246,10.6247787 8.44806652,10.6247787 C10.1730306,10.6247787 11.5730014,9.22480782 11.5730014,7.49984375 M0.948222766,7.49984375 C0.948222766,3.35826337 4.30648614,0 8.44806652,0 C12.5896469,0 15.9479103,3.35826337 15.9479103,7.49984375 C15.9479103,10.5231141 14.8945989,11.3680965 9.21971711,19.5962584 C8.84639155,20.1345805 8.04974148,20.1345805 7.67641593,19.5962584 C2.00153416,11.3680965 0.948222766,10.5231141 0.948222766,7.49984375" id="icon-location" fill="#000000"></path>
    </g>
</svg>