<?xml version="1.0" encoding="UTF-8"?>
<svg width="42px" height="48px" viewBox="0 0 42 48" version="1.1" xmlns="http://www.w3.org/2000/svg" xmlns:xlink="http://www.w3.org/1999/xlink">
    <title>icon-protection</title>
    <g id="Style-Guide" stroke="none" stroke-width="1" fill="none" fill-rule="evenodd">
        <path d="M30.061,25.7385 C30.04,25.7735 30.018,25.8035 29.994,25.8325 C29.762,26.2115 29.519,26.5745 29.246,26.8845 C28.874,27.3055 28.229,27.3495 27.81,26.9755 C27.386,26.6045 27.345,25.9615 27.718,25.5395 C27.861,25.3765 27.983,25.1725 28.111,24.9835 C27.423,21.5055 24.919,20.0165 23.389,19.4315 L23.389,31.3045 C23.389,33.5515 21.103,35.3795 18.296,35.3795 C15.489,35.3795 13.203,33.5515 13.203,31.3045 C13.203,29.0575 15.489,27.2295 18.296,27.2295 C19.447,27.2295 20.498,27.5485 21.352,28.0655 L21.352,9.9135 C21.352,9.3785 21.766,8.9355 22.299,8.8995 C22.825,8.8685 23.306,9.2455 23.379,9.7755 C23.453,10.2995 23.915,10.9225 24.324,11.4725 L24.449,11.6395 C25.141,12.5765 26.121,13.2325 27.158,13.9265 C28.547,14.8585 29.986,15.8215 30.823,17.5375 C31.357,18.6295 31.603,19.7905 31.536,20.8965 C31.43,22.6195 30.884,24.3615 30.061,25.7385 M39.569,5.2525 L22.129,0.1275 C21.552,-0.0425 20.939,-0.0425 20.362,0.1275 L2.922,5.2525 C1.588,5.6435 0.672,6.8675 0.672,8.2575 L0.672,27.5055 C0.672,38.9125 15.683,45.9535 20.061,47.7635 C20.821,48.0795 21.67,48.0795 22.431,47.7635 C26.808,45.9535 41.819,38.9125 41.819,27.5055 L41.819,8.2575 C41.819,6.8675 40.903,5.6435 39.569,5.2525" id="icon-protection" fill="#000000"></path>
    </g>
</svg>