<?xml version="1.0" encoding="UTF-8"?>
<svg width="49px" height="36px" viewBox="0 0 49 36" version="1.1" xmlns="http://www.w3.org/2000/svg" xmlns:xlink="http://www.w3.org/1999/xlink">
    <title>icon-publishing</title>
    <g id="Style-Guide" stroke="none" stroke-width="1" fill="none" fill-rule="evenodd">
        <path d="M1.70703326,32.7477691 C14.9800333,26.2097691 22.9510333,30.9467691 24.5290333,32.0547691 C24.7030333,32.1767691 24.9350333,32.1767691 25.1090333,32.0547691 C26.6870333,30.9467691 34.6580333,26.2097691 47.9310333,32.7477691 C48.1720333,32.8667691 48.2930333,33.1517691 48.2080333,33.4067691 L48.2080333,33.4067691 L47.7690333,34.7227691 C47.6660333,35.0337691 47.3140333,35.1817691 47.0230333,35.0327691 C44.4150333,33.6907691 33.0150333,28.4217691 25.1260333,34.3007691 C24.9420333,34.4367691 24.6960333,34.4367691 24.5120333,34.3007691 C16.6230333,28.4217691 5.22303326,33.6907691 2.61503326,35.0327691 C2.32403326,35.1817691 1.97203326,35.0337691 1.86903326,34.7227691 L1.86903326,34.7227691 L1.43003326,33.4067691 C1.34503326,33.1517691 1.46703326,32.8667691 1.70703326,32.7477691 Z M4.57833326,7.48206912 C4.75433326,7.36406912 4.99033326,7.50406912 4.97133326,7.71606912 L4.97133326,7.71606912 L3.32733326,26.0750691 C3.28733326,26.5130691 3.70233326,26.8480691 4.12633326,26.7330691 C15.8463333,23.5750691 20.9803333,26.9130691 22.4743333,28.2500691 C22.6063333,28.3680691 22.4833333,28.5700691 22.3163333,28.5120691 C13.6053333,25.4590691 4.32333326,29.2560691 1.55733326,30.5590691 C1.19433326,30.7290691 0.78433326,30.4380691 0.82133326,30.0380691 L0.82133326,30.0380691 L2.76333326,9.09006912 C2.78833326,8.82106912 2.93333326,8.57906912 3.15833326,8.42906912 L3.15833326,8.42906912 Z M45.0597333,7.48206912 L46.4797333,8.42906912 C46.7047333,8.57906912 46.8497333,8.82106912 46.8747333,9.09006912 L48.8167333,30.0380691 C48.8537333,30.4380691 48.4437333,30.7290691 48.0807333,30.5590691 C45.3147333,29.2560691 36.0327333,25.4590691 27.3217333,28.5120691 C27.1547333,28.5700691 27.0317333,28.3680691 27.1637333,28.2500691 C28.6577333,26.9130691 33.7917333,23.5750691 45.5117333,26.7330691 C45.9357333,26.8480691 46.3507333,26.5130691 46.3107333,26.0750691 L44.6667333,7.71606912 C44.6477333,7.50406912 44.8837333,7.36406912 45.0597333,7.48206912 Z M7.51183326,2.01306912 C16.1894884,-1.78513778 20.5234475,0.641591778 22.3182802,2.38830058 L22.4722719,2.54272077 C22.9141721,2.99942584 23.1766953,3.39217257 23.2948333,3.58706912 C23.3448333,3.67006912 23.3688333,3.76006912 23.3688333,3.85706912 L23.3688333,3.85706912 L23.3688333,24.9830691 C23.3688333,25.4230691 22.8648333,25.6560691 22.5208333,25.3800691 C17.7048333,21.5110691 8.56983326,22.9620691 6.02383326,23.4640691 C5.68283326,23.5310691 5.38183326,23.2520691 5.41183326,22.9060691 L5.41183326,22.9060691 L7.19383326,2.45306912 C7.21083326,2.26206912 7.33583326,2.09006912 7.51183326,2.01306912 Z M42.1262333,2.01306912 C42.3022333,2.09006912 42.4272333,2.26206912 42.4442333,2.45306912 L44.2262333,22.9060691 C44.2562333,23.2520691 43.9552333,23.5310691 43.6142333,23.4640691 C41.0682333,22.9620691 31.9332333,21.5110691 27.1172333,25.3800691 C26.7732333,25.6560691 26.2692333,25.4230691 26.2692333,24.9830691 L26.2692333,3.85706912 C26.2692333,3.76006912 26.2932333,3.67006912 26.3432333,3.58706912 C26.4613712,3.39217257 26.7238944,2.99942584 27.1657947,2.54272077 L27.3197864,2.38830058 C29.114619,0.641591778 33.4485781,-1.78513778 42.1262333,2.01306912 Z" id="icon-publishing" fill="#000000"></path>
    </g>
</svg>