<?xml version="1.0" encoding="UTF-8"?>
<svg width="46px" height="48px" viewBox="0 0 46 48" version="1.1" xmlns="http://www.w3.org/2000/svg" xmlns:xlink="http://www.w3.org/1999/xlink">
    <title>icon-radio</title>
    <g id="Style-Guide" stroke="none" stroke-width="1" fill="none" fill-rule="evenodd">
        <path d="M23.1329665,7.50695436 C26.4569665,7.50695436 29.1529665,10.2019544 29.1529665,13.5269544 C29.1529665,15.6619544 28.0379665,17.5329544 26.3619665,18.6009544 L26.3619665,18.6009544 L38.0199665,45.1279544 C38.4749665,46.1629544 38.0049665,47.3709544 36.9699665,47.8259544 C35.9349665,48.2819544 34.7269665,47.8109544 34.2719665,46.7749544 L34.2719665,46.7749544 L33.3029665,44.5709544 L23.1329665,35.7559544 L12.9629665,44.5699544 L11.9939665,46.7749544 C11.6569665,47.5419544 10.9059665,47.9989544 10.1189665,47.9989544 C9.84396652,47.9989544 9.56396652,47.9429544 9.29696652,47.8259544 C8.26196652,47.3709544 7.79096652,46.1629544 8.24596652,45.1279544 L8.24596652,45.1279544 L19.9049665,18.6009544 C18.2279665,17.5329544 17.1139665,15.6619544 17.1139665,13.5269544 C17.1139665,10.2019544 19.8089665,7.50695436 23.1329665,7.50695436 Z M27.6929665,31.8049544 L25.4769665,33.7249544 L30.4189665,38.0079544 L27.6929665,31.8049544 Z M18.5739665,31.8049544 L15.8479665,38.0079544 L20.7899665,33.7249544 L18.5739665,31.8049544 Z M23.1329665,21.4309544 L19.8669665,28.8619544 L23.1329665,31.6929544 L26.3999665,28.8629544 L23.1329665,21.4309544 Z M5.33506652,0.785054364 C6.03106652,-0.104945636 7.31806652,-0.260945636 8.20906652,0.435054364 C9.09906652,1.13305436 9.25506652,2.41905436 8.55806652,3.30905436 C6.17306652,6.35405436 4.91306652,10.0120544 4.91306652,13.8890544 C4.91306652,17.7670544 6.17306652,21.4260544 8.55806652,24.4700544 C9.25506652,25.3600544 9.09906652,26.6470544 8.20906652,27.3440544 C7.83406652,27.6370544 7.38906652,27.7790544 6.94806652,27.7790544 C6.34006652,27.7790544 5.73906652,27.5100544 5.33506652,26.9950544 C2.38106652,23.2220544 0.819066519,18.6910544 0.819066519,13.8890544 C0.819066519,9.08905436 2.38106652,4.55705436 5.33506652,0.785054364 Z M38.0570665,0.436054364 C38.9480665,-0.261945636 40.2330665,-0.104945636 40.9310665,0.785054364 C43.8850665,4.55705436 45.4480665,9.08905436 45.4480665,13.8890544 C45.4480665,18.6910544 43.8850665,23.2220544 40.9310665,26.9950544 C40.5270665,27.5100544 39.9250665,27.7790544 39.3190665,27.7790544 C38.8760665,27.7790544 38.4320665,27.6380544 38.0570665,27.3440544 C37.1670665,26.6460544 37.0110665,25.3600544 37.7080665,24.4700544 C40.0930665,21.4260544 41.3540665,17.7670544 41.3540665,13.8890544 C41.3540665,10.0130544 40.0930665,6.35405436 37.7080665,3.30905436 C37.0110665,2.41905436 37.1670665,1.13305436 38.0570665,0.436054364 Z M11.5257665,4.82745436 C12.2227665,3.93745436 13.5087665,3.77945436 14.3997665,4.47745436 C15.2897665,5.17445436 15.4467665,6.46045436 14.7497665,7.35045436 C13.2757665,9.23245436 12.4967665,11.4944544 12.4967665,13.8894544 C12.4967665,16.2854544 13.2757665,18.5474544 14.7497665,20.4284544 C15.4467665,21.3184544 15.2897665,22.6044544 14.3997665,23.3024544 C14.0257665,23.5954544 13.5807665,23.7374544 13.1387665,23.7374544 C12.5317665,23.7374544 11.9297665,23.4684544 11.5257665,22.9524544 C9.48276652,20.3434544 8.40276652,17.2094544 8.40276652,13.8894544 C8.40276652,10.5694544 9.48276652,7.43545436 11.5257665,4.82745436 Z M31.8665665,4.47765436 C32.7575665,3.78065436 34.0435665,3.93765436 34.7395665,4.82665436 C36.7825665,7.43465436 37.8635665,10.5686544 37.8635665,13.8896544 C37.8635665,17.2106544 36.7825665,20.3446544 34.7395665,22.9526544 C34.3365665,23.4686544 33.7345665,23.7376544 33.1275665,23.7376544 C32.6855665,23.7376544 32.2415665,23.5956544 31.8665665,23.3016544 C30.9765665,22.6046544 30.8195665,21.3186544 31.5175665,20.4276544 C32.9905665,18.5476544 33.7685665,16.2866544 33.7685665,13.8896544 C33.7685665,11.4926544 32.9905665,9.23165436 31.5175665,7.35165436 C30.8195665,6.46165436 30.9765665,5.17565436 31.8665665,4.47765436 Z" id="icon-radio" fill="#000000"></path>
    </g>
</svg>