<?xml version="1.0" encoding="UTF-8"?>
<svg width="49px" height="48px" viewBox="0 0 49 48" version="1.1" xmlns="http://www.w3.org/2000/svg" xmlns:xlink="http://www.w3.org/1999/xlink">
    <title>icon-record-label</title>
    <g id="Style-Guide" stroke="none" stroke-width="1" fill="none" fill-rule="evenodd">
        <path d="M24.4480665,0 C37.7030665,0 48.4480665,10.745 48.4480665,24 C48.4480665,37.255 37.7030665,48 24.4480665,48 C11.1930665,48 0.448066519,37.255 0.448066519,24 C0.448066519,10.745 11.1930665,0 24.4480665,0 Z M43.2110665,25.286 C42.6650665,25.223 42.1640665,25.609 42.0980665,26.158 C41.6150665,30.133 39.8590665,33.735 37.0210665,36.573 C34.1830665,39.411 30.5810665,41.167 26.6060665,41.65 C26.0580665,41.716 25.6670665,42.215 25.7340665,42.763 C25.7950665,43.271 26.2270665,43.643 26.7250665,43.643 C26.7660665,43.643 26.8060665,43.64 26.8470665,43.635 C31.2700665,43.098 35.2770665,41.145 38.4350665,37.987 C41.5930665,34.829 43.5460665,30.822 44.0830665,26.399 C44.1500665,25.851 43.7600665,25.352 43.2110665,25.286 Z M38.3070665,24.686 C37.7600665,24.619 37.2600665,25.009 37.1930665,25.558 C36.8440665,28.428 35.5770665,31.029 33.5270665,33.079 C31.4770665,35.129 28.8760665,36.396 26.0060665,36.745 C25.4580665,36.812 25.0670665,37.31 25.1340665,37.859 C25.1960665,38.366 25.6270665,38.738 26.1250665,38.738 C26.1660665,38.738 26.2060665,38.736 26.2470665,38.731 C29.5660665,38.327 32.5720665,36.862 34.9410665,34.493 C37.3100665,32.124 38.7750665,29.118 39.1790665,25.799 C39.2460665,25.251 38.8550665,24.753 38.3070665,24.686 Z M24.4480665,14.857 C19.4070665,14.857 15.3050665,18.959 15.3050665,24 C15.3050665,29.041 19.4070665,33.142 24.4480665,33.142 C29.4890665,33.142 33.5900665,29.041 33.5900665,24 C33.5900665,18.959 29.4890665,14.857 24.4480665,14.857 Z M24.4477665,16.8575 C28.3857665,16.8575 31.5907665,20.0615 31.5907665,23.9995 C31.5907665,27.9385 28.3857665,31.1425 24.4477665,31.1425 C20.5097665,31.1425 17.3047665,27.9385 17.3047665,23.9995 C17.3047665,20.0615 20.5097665,16.8575 24.4477665,16.8575 Z M24.4477665,20.6155 C22.5787665,20.6155 21.0637665,22.1315 21.0637665,23.9995 C21.0637665,25.8685 22.5787665,27.3835 24.4477665,27.3835 C26.3167665,27.3835 27.8317665,25.8685 27.8317665,23.9995 C27.8317665,22.1315 26.3167665,20.6155 24.4477665,20.6155 Z M22.7638519,9.26152915 L22.6480665,9.269 C19.3300665,9.672 16.3230665,11.137 13.9550665,13.507 C11.5850665,15.875 10.1200665,18.882 9.71706652,22.2 C9.65006652,22.748 10.0400665,23.246 10.5890665,23.313 C10.6300665,23.318 10.6700665,23.32 10.7110665,23.32 C11.2090665,23.32 11.6410665,22.948 11.7020665,22.441 C12.0510665,19.571 13.3190665,16.97 15.3690665,14.921 C17.4180665,12.871 20.0190665,11.603 22.8890665,11.254 C23.4370665,11.187 23.8280665,10.689 23.7610665,10.141 C23.6940665,9.592 23.1920665,9.202 22.6480665,9.269 Z M22.1644207,4.35652915 L22.0480665,4.364 C17.6250665,4.902 13.6180665,6.855 10.4600665,10.012 C7.30306652,13.17 5.35006652,17.177 4.81206652,21.6 C4.74506652,22.149 5.13606652,22.647 5.68406652,22.714 C5.72506652,22.718 5.76606652,22.721 5.80606652,22.721 C6.30406652,22.721 6.73606652,22.349 6.79706652,21.841 C7.28106652,17.866 9.03606652,14.265 11.8740665,11.426 C14.7130665,8.588 18.3140665,6.833 22.2890665,6.349 C22.8380665,6.283 23.2280665,5.784 23.1620665,5.236 C23.0950665,4.687 22.5950665,4.297 22.0480665,4.364 Z" id="icon-record-label" fill="#000000"></path>
    </g>
</svg>