<?xml version="1.0" encoding="UTF-8"?>
<svg width="41px" height="40px" viewBox="0 0 41 40" version="1.1" xmlns="http://www.w3.org/2000/svg" xmlns:xlink="http://www.w3.org/1999/xlink">
    <title>icon-song</title>
    <g id="Style-Guide" stroke="none" stroke-width="1" fill="none" fill-rule="evenodd">
        <path d="M40.3437634,0.363502794 C40.0398235,0.0948871864 39.6371931,-0.0341052261 39.2337256,0.0077482497 L13.51895,2.86491763 C12.795136,2.94502518 12.2474414,3.55675559 12.2475251,4.28492236 L12.2475251,29.7440569 C10.952746,28.9692653 9.4706307,28.5636214 7.96172919,28.5711551 C4.023066,28.5712388 0.818680183,31.1340945 0.818680183,34.2855775 C0.818680183,37.4370606 4.023066,40 7.96164549,40 C11.900225,40 15.1046108,37.4384836 15.1046108,34.2855775 L15.1046108,12.7137939 L37.962217,10.1680143 L37.962217,26.8826184 C36.6670193,26.1093336 35.184904,25.7051965 33.676421,25.7139857 C29.7377578,25.7139857 26.5334557,28.2769251 26.5334557,31.4284082 C26.5334557,34.5798912 29.7378415,37.1428306 33.676421,37.1428306 C37.6150005,37.1428306 40.8193863,34.5813142 40.8193863,31.4284082 L40.8193863,1.42783668 C40.8193863,1.02152314 40.6464478,0.634462197 40.3437634,0.363502794 Z" id="icon-song" fill="#000000" fill-rule="nonzero"></path>
    </g>
</svg>