<?xml version="1.0" encoding="UTF-8"?>
<svg width="32px" height="48px" viewBox="0 0 32 48" version="1.1" xmlns="http://www.w3.org/2000/svg" xmlns:xlink="http://www.w3.org/1999/xlink">
    <title>icon-recording-studio</title>
    <g id="Style-Guide" stroke="none" stroke-width="1" fill="none" fill-rule="evenodd">
        <path d="M30.095,19.3421 C30.923,19.3421 31.595,20.0131 31.595,20.8421 L31.595,20.8421 L31.595,22.8321 C31.595,30.5721 25.981,37.0131 18.613,38.3311 L18.613,38.3311 L18.613,43.2981 C23.82,43.7551 27.589,45.3171 27.589,45.3171 L27.589,45.3171 L27.589,47.9991 L4.083,47.9991 L4.083,45.3171 C4.083,45.3171 7.853,43.7551 13.06,43.2981 L13.06,43.2981 L13.06,38.3311 C5.692,37.0131 0.077,30.5721 0.077,22.8321 L0.077,22.8321 L0.077,20.8421 C0.077,20.0131 0.749,19.3421 1.577,19.3421 C2.406,19.3421 3.077,20.0131 3.077,20.8421 L3.077,20.8421 L3.077,22.8321 C3.077,29.8671 8.801,35.5901 15.836,35.5901 C22.871,35.5901 28.595,29.8671 28.595,22.8321 L28.595,22.8321 L28.595,20.8421 C28.595,20.0131 29.267,19.3421 30.095,19.3421 Z M15.836,0 C21.171,0 25.551,4.072 26.045,9.277 L26.045,9.277 L20.057,9.277 C19.504,9.277 19.057,9.725 19.057,10.277 C19.057,10.83 19.504,11.277 20.057,11.277 L20.057,11.277 L26.095,11.277 L26.095,13.395 L20.057,13.395 C19.504,13.395 19.057,13.843 19.057,14.395 C19.057,14.947 19.504,15.395 20.057,15.395 L20.057,15.395 L26.095,15.395 L26.095,17.512 L20.057,17.512 C19.504,17.512 19.057,17.96 19.057,18.512 C19.057,19.065 19.504,19.512 20.057,19.512 L20.057,19.512 L26.095,19.512 L26.095,21.63 L20.057,21.63 C19.504,21.63 19.057,22.078 19.057,22.63 C19.057,23.182 19.504,23.63 20.057,23.63 L20.057,23.63 L26.055,23.63 C25.647,28.922 21.233,33.09 15.836,33.09 C10.44,33.09 6.026,28.922 5.617,23.63 L5.617,23.63 L11.615,23.63 C12.167,23.63 12.615,23.182 12.615,22.63 C12.615,22.078 12.167,21.63 11.615,21.63 L11.615,21.63 L5.577,21.63 L5.577,19.512 L11.615,19.512 C12.167,19.512 12.615,19.065 12.615,18.512 C12.615,17.96 12.167,17.512 11.615,17.512 L11.615,17.512 L5.577,17.512 L5.577,15.395 L11.615,15.395 C12.167,15.395 12.615,14.947 12.615,14.395 C12.615,13.843 12.167,13.395 11.615,13.395 L11.615,13.395 L5.577,13.395 L5.577,11.277 L11.615,11.277 C12.167,11.277 12.615,10.83 12.615,10.277 C12.615,9.725 12.167,9.277 11.615,9.277 L11.615,9.277 L5.627,9.277 C6.121,4.072 10.502,0 15.836,0 Z" id="icon-recording-studio" fill="#000000"></path>
    </g>
</svg>