<?xml version="1.0" encoding="UTF-8"?>
<svg width="30px" height="30px" viewBox="0 0 30 30" version="1.1" xmlns="http://www.w3.org/2000/svg" xmlns:xlink="http://www.w3.org/1999/xlink">
    <title>Youtube</title>
    <g stroke="none" stroke-width="1" fill="none" fill-rule="evenodd">
        <path d="M17.5,14.7256117 L13.993904,13.0792702 C13.851625,12.9979707 13.724593,12.9928859 13.612804,13.0640273 C13.501015,13.1351649 13.44512,13.2621971 13.44512,13.4451239 L13.44512,16.5243941 C13.44512,16.6869932 13.501015,16.8038634 13.612804,16.875001 C13.724593,16.9461424 13.851625,16.9410576 13.993904,16.859758 L17.5,15.2439024 C17.662603,15.1626029 17.743902,15.0711415 17.743902,14.9695141 C17.743902,14.8678868 17.662603,14.7865873 17.5,14.7256117 Z M15,9.09494702e-13 C12.926818,9.09494702e-13 10.980699,0.391258537 9.161584,1.17378341 C7.34247,1.95630829 5.75712,3.0233678 4.405487,4.37500098 C3.053855,5.72663415 1.981711,7.31198439 1.189024,9.13109854 C0.396338,10.9502127 0,12.8963317 0,14.9695141 C0,17.0426966 0.396338,18.9888156 1.189024,20.8079298 C1.981711,22.6270439 3.053855,24.2123941 4.405487,25.5640273 C5.75712,26.9156589 7.34247,27.9878029 9.161584,28.7804898 C10.980699,29.5731766 12.926818,29.9695141 15,29.9695141 C17.073182,29.9695141 19.019301,29.5731766 20.838416,28.7804898 C22.65753,27.9878029 24.24288,26.9156589 25.594513,25.5640273 C26.946146,24.2123941 28.018287,22.6270439 28.810974,20.8079298 C29.603664,18.9888156 30,17.0426966 30,14.9695141 C30,12.8963317 29.603664,10.9502127 28.810974,9.13109854 C28.018287,7.31198439 26.946146,5.72663415 25.594513,4.37500098 C24.24288,3.0233678 22.65753,1.95630829 20.838416,1.17378341 C19.019301,0.391258537 17.073182,9.09494702e-13 15,9.09494702e-13 Z M15,21.0670751 C11.158517,21.0670751 8.897362,20.7266302 8.216464,20.0457327 C7.535567,19.3648351 7.195122,17.6727805 7.195122,14.9695141 C7.195122,12.2662478 7.535567,10.5792741 8.216464,9.90853854 C8.897362,9.23780293 11.158517,8.90243902 15,8.90243902 C18.841483,8.90243902 21.102638,9.23780293 21.783536,9.90853854 C22.464433,10.5792741 22.804878,12.2662478 22.804878,14.9695141 C22.804878,17.6727805 22.464433,19.3648351 21.783536,20.0457327 C21.102638,20.7266302 18.841483,21.0670751 15,21.0670751 Z" fill="#29282b" fill-rule="nonzero"></path>
    </g>
</svg>